# xmcd
#
# Track frame offsets:
#	150
#	18905
#	41035
#	63583
#	86683
#	107289
#	127486
#	150817
#	176017
#	196580
#	218497
#	240638
#
# Disc length: 3508 seconds
#
# Revision: 1
# Processed by: cddbd v1.5.2PL0 Copyright (c) Steve Scherf et al.
# Submitted via: audiograbber 1.83.01
#
DISCID=940db20c
DTITLE=Various Artist - Gosple Walking
DYEAR=1900
DGENRE=Gospel
TTITLE0=Down by the Riverside
TTITLE1=River of Life
TTITLE2=Do Lord
TTITLE3=Higher and Higher
TTITLE4=Put Your Hand in the Hand
TTITLE5=I Will Follow Him
TTITLE6=Oh, Happy Day
TTITLE7=When the Saints Go Marching In
TTITLE8=I Believe I Can Fly
TTITLE9=Ain't No Mountain High Enough
TTITLE10=Michael,, Row the Boat Ashore
TTITLE11=Will the Circle Be Unbroken
EXTD=
EXTT0=
EXTT1=
EXTT2=
EXTT3=
EXTT4=
EXTT5=
EXTT6=
EXTT7=
EXTT8=
EXTT9=
EXTT10=
EXTT11=
PLAYORDER=
